<?xml version="1.0" encoding="UTF-8" standalone="no"?>
<svg
   xmlns:dc="http://purl.org/dc/elements/1.1/"
   xmlns:cc="http://creativecommons.org/ns#"
   xmlns:rdf="http://www.w3.org/1999/02/22-rdf-syntax-ns#"
   xmlns:svg="http://www.w3.org/2000/svg"
   xmlns="http://www.w3.org/2000/svg"
   xml:space="preserve"
   viewBox="0 0 652 652"
   y="0px"
   x="0px"
   version="1.1">
<g transform="matrix(4.31463,0,0,4.372576,-103.73714,-1095.0872)"><circle
     style="fill:#37ab2e"
     cx="99.599998"
     cy="325"
     r="73.099998" /><g><path
       style="fill:#ffffff;fill-opacity:1"
       d="m 64,329.1 c 3.6,0 6.5,-2.9 6.5,-6.5 0,-3.6 -2.9,-6.5 -6.5,-6.5 -3.6,0 -6.5,2.9 -6.5,6.5 0,3.6 2.9,6.5 6.5,6.5 z" /><path
       style="fill:#ffffff;fill-opacity:1"
       d="m 134.3,329.1 c 3.6,0 6.5,-2.9 6.5,-6.5 0,-3.6 -2.9,-6.5 -6.5,-6.5 -3.6,0 -6.5,2.9 -6.5,6.5 0,3.6 2.9,6.5 6.5,6.5 z" /><path
       style="fill:#ffffff;fill-opacity:1"
       d="M 103.3,327.9 H 83.6 c -2.7,0 -4.9,-2.2 -4.9,-5 0,-2.8 2.2,-5 4.9,-5 h 19.7 l -6.1,-6.3 c -1.9,-1.9 -1.9,-5.1 0,-7 1.9,-2 5,-2 6.9,0 l 14.3,14.8 c 0.9,0.9 1.4,2.2 1.4,3.5 0,1.3 -0.5,2.6 -1.4,3.5 l -14.3,14.8 c -0.9,1 -2.2,1.5 -3.5,1.5 -1.3,0 -2.5,-0.5 -3.5,-1.5 -1.9,-2 -1.9,-5.1 0,-7 z" /></g></g>
</svg>
